# xmcd CD database file
#
# Track frame offsets:
#	150
#	31514
#	63933
#	97116
#	129656
#	162229
#	194107
#	226184
#
# Disc length: 3436 seconds
#
# Revision: 0
# Processed by: cddbd v1.5.2PL0 Copyright (c) Steve Scherf et al.
# Submitted via: CDex 1.70beta2
#
DISCID=650d6a08
DTITLE=Cheryl Bentyne - Blissongs Volume One
DYEAR=2010
DGENRE=Jazz
TTITLE0=The Beginning (Earth)
TTITLE1=Flow To The Sea (Water)
TTITLE2=Dance Of The Transformation (Fire)
TTITLE3=The Silence Of Breath (Air)
TTITLE4=Echo (Sound)
TTITLE5=The Beauty Of 1000 Stars (Light)
TTITLE6=The Bliss Of Conciousness (Thought)
TTITLE7=Harmony, Peace And Balance (Enlightenment)
EXTD=YEAR: 2010
EXTT0=
EXTT1=
EXTT2=
EXTT3=
EXTT4=
EXTT5=
EXTT6=
EXTT7=
PLAYORDER=
